Coordinates
version=1
nRows=34
nColumns=38
inDegrees=no

Units are S.I. units (second, meters, Newtons, ...)
If the header above contains a line with 'inDegrees', this indicates whether rotational values are in degrees (yes) or radians (no).

endheader
time	pelvis_tilt	pelvis_list	pelvis_rotation	pelvis_tx	pelvis_ty	pelvis_tz	hip_flexion_r	hip_adduction_r	hip_rotation_r	knee_angle_r	ankle_angle_r	subtalar_angle_r	mtp_angle_r	hip_flexion_l	hip_adduction_l	hip_rotation_l	knee_angle_l	ankle_angle_l	subtalar_angle_l	mtp_angle_l	lumbar_extension	lumbar_bending	lumbar_rotation	arm_flex_r	arm_add_r	arm_rot_r	elbow_flex_r	pro_sup_r	wrist_flex_r	wrist_dev_r	arm_flex_l	arm_add_l	arm_rot_l	elbow_flex_l	pro_sup_l	wrist_flex_l	wrist_dev_l
0.88	-0.224847	1.43702	-1.31256	0.756509	-0.236229	1.02793	0.42663	0.00995884	-0.0434601	1.06721	-0.119027	0	0	-0.0177362	-0.0996566	-0.402359	0.687226	-0.0656978	0	0	-0.353008	0.093225	0.132127	-0.377139	-0.364491	0.105971	0.729758	1.18845	0	0	0.437104	-0.585177	1.15156	0.743821	1.1183	0	0
0.89	-0.247237	1.43878	-1.28019	0.757546	-0.24663	1.02762	0.434039	0.015144	-0.0440231	1.02255	-0.0981934	0	0	-0.0275185	-0.10262	-0.396839	0.682928	-0.0620954	0	0	-0.349608	0.0976108	0.123604	-0.374063	-0.363468	0.108586	0.725417	1.19067	0	0	0.442237	-0.593777	1.12947	0.762531	1.12657	0	0
0.9	-0.272097	1.4417	-1.2464	0.758471	-0.257022	1.02708	0.44139	0.0196287	-0.0430366	0.974822	-0.0794446	0	0	-0.0356482	-0.105221	-0.390901	0.678969	-0.0580752	0	0	-0.345135	0.101454	0.11618	-0.37068	-0.362276	0.11203	0.720147	1.19157	0	0	0.446549	-0.601341	1.10749	0.779912	1.13528	0	0
0.91	-0.297796	1.44579	-1.21248	0.759329	-0.267415	1.02631	0.448176	0.0225751	-0.0416391	0.923467	-0.0626848	0	0	-0.0420958	-0.107344	-0.385022	0.675787	-0.0539942	0	0	-0.339552	0.104563	0.109794	-0.367365	-0.36096	0.11624	0.714348	1.19138	0	0	0.450934	-0.607774	1.08747	0.79562	1.145	0	0
0.92	-0.325005	1.45087	-1.17749	0.760102	-0.27784	1.02535	0.45278	0.0245608	-0.0398593	0.8682	-0.04513	0	0	-0.0470964	-0.109155	-0.379278	0.673354	-0.0501975	0	0	-0.332807	0.106976	0.104499	-0.3641	-0.35924	0.120972	0.707531	1.19008	0	0	0.456296	-0.612849	1.07085	0.809166	1.15787	0	0
0.93	-0.352473	1.45659	-1.14267	0.760791	-0.288334	1.02424	0.455105	0.0252193	-0.0382337	0.808719	-0.0275243	0	0	-0.0514057	-0.110313	-0.373034	0.67108	-0.0467477	0	0	-0.325375	0.108568	0.100105	-0.360954	-0.357126	0.125918	0.700027	1.18754	0	0	0.462561	-0.61699	1.05767	0.820914	1.17343	0	0
0.94	-0.378576	1.46266	-1.10959	0.761472	-0.298915	1.02301	0.455077	0.0241723	-0.0378336	0.745039	-0.0109473	0	0	-0.055882	-0.110916	-0.366922	0.668393	-0.0434968	0	0	-0.317926	0.109486	0.0964645	-0.358475	-0.354966	0.130516	0.693153	1.18374	0	0	0.46902	-0.620466	1.04687	0.831632	1.18872	0	0
0.95	-0.407557	1.4694	-1.07362	0.762144	-0.3096	1.02166	0.452409	0.0221585	-0.0384488	0.674788	0.0027016	0	0	-0.059644	-0.111467	-0.361502	0.665816	-0.0405723	0	0	-0.309949	0.109985	0.0930721	-0.356132	-0.352716	0.135517	0.686092	1.17891	0	0	0.475011	-0.623236	1.03695	0.841299	1.20385	0	0
0.96	-0.441452	1.47621	-1.03248	0.762796	-0.320432	1.02022	0.446228	0.0198719	-0.0401055	0.596477	0.00952853	0	0	-0.0631983	-0.11225	-0.356197	0.663066	-0.0383702	0	0	-0.301373	0.110379	0.0896422	-0.353677	-0.350175	0.141157	0.678028	1.17314	0	0	0.480556	-0.625103	1.02848	0.849344	1.21847	0	0
0.97	-0.476099	1.48151	-0.990378	0.763381	-0.33141	1.01884	0.43336	0.018756	-0.0415034	0.506393	0.00515824	0	0	-0.0684097	-0.113614	-0.350622	0.659785	-0.0368681	0	0	-0.294016	0.111005	0.0863499	-0.350881	-0.347511	0.14775	0.66912	1.16632	0	0	0.485847	-0.626418	1.02128	0.856231	1.23223	0	0
0.98	-0.504057	1.48402	-0.954781	0.763905	-0.342555	1.01763	0.410577	0.0200241	-0.0394305	0.399236	-0.018504	0	0	-0.0770241	-0.116224	-0.345893	0.65595	-0.0361628	0	0	-0.289696	0.112443	0.0838637	-0.34839	-0.344898	0.154181	0.660554	1.15849	0	0	0.491695	-0.626976	1.01622	0.862068	1.24441	0	0
0.99	-0.509393	1.48174	-0.941248	0.764379	-0.353901	1.01678	0.371564	0.0241709	-0.0285613	0.263425	-0.081891	0	0	-0.0919646	-0.121029	-0.343628	0.651148	-0.0368046	0	0	-0.29119	0.1151	0.0820218	-0.346361	-0.342847	0.160972	0.653682	1.14785	0	0	0.498064	-0.627199	1.01222	0.867831	1.25592	0	0
1	-0.496924	1.47794	-0.944681	0.764811	-0.365523	1.01584	0.3215	0.0279285	-0.00258367	0.106167	-0.180364	0	0	-0.109636	-0.126528	-0.343161	0.64696	-0.0373166	0	0	-0.294426	0.117418	0.0802227	-0.346292	-0.340059	0.165034	0.648725	1.13707	0	0	0.505398	-0.627921	1.01253	0.87373	1.26357	0	0
1.01	-0.501164	1.47993	-0.931667	0.765145	-0.377245	1.01406	0.291972	0.0269598	0.0171211	0	-0.228906	0	0	-0.120142	-0.129603	-0.340665	0.646051	-0.035398	0	0	-0.290411	0.117265	0.0779513	-0.347298	-0.335263	0.165851	0.642272	1.13119	0	0	0.511289	-0.628807	1.01482	0.878576	1.26812	0	0
1.02	-0.510038	1.48242	-0.916244	0.765358	-0.388645	1.0122	0.291901	0.0262454	0.00776265	0	-0.236457	0	0	-0.129497	-0.131956	-0.33869	0.645987	-0.0342953	0	0	-0.287188	0.117101	0.0778546	-0.348675	-0.331659	0.165855	0.63839	1.12806	0	0	0.51642	-0.628985	1.01608	0.883012	1.27046	0	0
1.03	-0.526791	1.48422	-0.893071	0.765472	-0.400318	1.01048	0.293394	0.0274212	-0.00208986	0	-0.232075	0	0	-0.139244	-0.135147	-0.335946	0.645189	-0.0326519	0	0	-0.283762	0.117529	0.0774397	-0.347927	-0.327909	0.168542	0.630908	1.12152	0	0	0.518395	-0.62898	1.01406	0.886653	1.27565	0	0
1.04	-0.543721	1.48449	-0.870015	0.765572	-0.412164	1.00891	0.294422	0.0299895	-0.00695996	0	-0.218946	0	0	-0.150435	-0.139729	-0.334493	0.6442	-0.0329929	0	0	-0.281567	0.11912	0.0762664	-0.346681	-0.325385	0.173017	0.624114	1.11395	0	0	0.516843	-0.629345	1.00844	0.890477	1.27959	0	0
1.05	-0.547966	1.48276	-0.857907	0.765819	-0.423856	1.00759	0.294006	0.0327547	-0.0103963	0	-0.214152	0	0	-0.162604	-0.145088	-0.330657	0.644401	-0.0343264	0	0	-0.281841	0.121737	0.0737375	-0.345583	-0.322638	0.175182	0.618529	1.10972	0	0	0.516582	-0.629687	1.006	0.893633	1.28277	0	0
1.06	-0.54415	1.47976	-0.852888	0.766111	-0.435542	1.00646	0.293091	0.0361826	-0.0132074	0	-0.213672	0	0	-0.175471	-0.15115	-0.325145	0.645038	-0.0368243	0	0	-0.283608	0.124892	0.0695492	-0.343453	-0.320042	0.178151	0.612627	1.10485	0	0	0.514766	-0.630738	1.00245	0.89715	1.2878	0	0
1.07	-0.54973	1.47764	-0.839903	0.766214	-0.447687	1.00533	0.293693	0.041086	-0.0117111	0	-0.218728	0	0	-0.187389	-0.157777	-0.322154	0.645502	-0.041043	0	0	-0.283261	0.128077	0.0655606	-0.341358	-0.317407	0.181623	0.605877	1.10036	0	0	0.508329	-0.631906	0.995592	0.900174	1.29169	0	0
1.08	-0.552433	1.47547	-0.828541	0.766423	-0.459979	1.00429	0.295063	0.0464299	-0.0108151	0.00408945	-0.232254	0	0	-0.198541	-0.164483	-0.316513	0.646347	-0.0482946	0	0	-0.282876	0.131598	0.0583529	-0.337659	-0.31543	0.18798	0.598294	1.09417	0	0	0.496719	-0.634288	0.982674	0.904564	1.2963	0	0
1.09	-0.571349	1.47649	-0.800492	0.766772	-0.472208	1.003	0.322034	0.0495922	-0.0383601	0.0912477	-0.218595	0	0	-0.203987	-0.169343	-0.305767	0.649549	-0.056103	0	0	-0.27918	0.134888	0.0458553	-0.331285	-0.316207	0.202111	0.591123	1.08281	0	0	0.474793	-0.638914	0.955462	0.912479	1.30501	0	0
1.1	-0.593296	1.47674	-0.768108	0.767295	-0.484589	1.00183	0.346066	0.0510145	-0.0618567	0.170398	-0.204364	0	0	-0.208527	-0.17504	-0.292552	0.654328	-0.0632683	0	0	-0.274864	0.139727	0.0335842	-0.327144	-0.31627	0.211813	0.585102	1.0741	0	0	0.454139	-0.641322	0.933535	0.917619	1.31126	0	0
1.11	-0.613006	1.47247	-0.737467	0.767976	-0.497053	1.00142	0.355327	0.0540584	-0.0731877	0.210952	-0.218935	0	0	-0.21584	-0.183969	-0.278732	0.659293	-0.0726899	0	0	-0.273952	0.148624	0.0233996	-0.323865	-0.315906	0.217672	0.578869	1.06993	0	0	0.436111	-0.640335	0.917126	0.918934	1.31483	0	0
1.12	-0.65287	1.46692	-0.687487	0.768706	-0.509661	1.00149	0.361004	0.0595761	-0.0788041	0.236427	-0.234143	0	0	-0.220864	-0.195061	-0.264024	0.666461	-0.0840043	0	0	-0.271836	0.160671	0.013534	-0.319768	-0.31604	0.223486	0.571296	1.06628	0	0	0.414692	-0.63701	0.897827	0.917932	1.31861	0	0
1.13	-0.700965	1.46161	-0.631534	0.769228	-0.522441	1.00176	0.36825	0.0672887	-0.0832798	0.265851	-0.248799	0	0	-0.223441	-0.205885	-0.248929	0.67604	-0.0971289	0	0	-0.26797	0.173031	0.00413785	-0.314755	-0.316544	0.230629	0.56289	1.06232	0	0	0.388723	-0.633398	0.874482	0.917201	1.3223	0	0
1.14	-0.753522	1.45908	-0.573574	0.769525	-0.535387	1.00188	0.385485	0.0725295	-0.0949843	0.319002	-0.252737	0	0	-0.221589	-0.213542	-0.233219	0.689876	-0.111388	0	0	-0.260937	0.182843	-0.00597393	-0.309228	-0.317513	0.240557	0.554825	1.0565	0	0	0.357459	-0.630648	0.84526	0.918476	1.33181	0	0
1.15	-0.795312	1.45804	-0.528232	0.769734	-0.548452	1.00199	0.405014	0.0747484	-0.105705	0.381642	-0.235833	0	0	-0.217577	-0.218082	-0.217308	0.708647	-0.125056	0	0	-0.253537	0.190424	-0.0142843	-0.305769	-0.318242	0.248375	0.549108	1.05175	0	0	0.326482	-0.62716	0.818593	0.919533	1.34001	0	0
1.16	-0.830009	1.45821	-0.491572	0.76987	-0.561658	1.00219	0.422173	0.0761722	-0.108255	0.439057	-0.20774	0	0	-0.210985	-0.220311	-0.201528	0.732716	-0.140031	0	0	-0.245606	0.19633	-0.0220577	-0.30323	-0.318189	0.253287	0.544007	1.04683	0	0	0.29421	-0.622974	0.792493	0.920101	1.3447	0	0
1.17	-0.847198	1.45814	-0.473054	0.769962	-0.574911	1.00272	0.43183	0.0791818	-0.103474	0.482436	-0.188159	0	0	-0.20357	-0.220965	-0.184428	0.760207	-0.157433	0	0	-0.239578	0.201267	-0.0283408	-0.301657	-0.317454	0.255495	0.539712	1.04304	0	0	0.264007	-0.617773	0.770493	0.919506	1.34658	0	0
1.18	-0.853937	1.45803	-0.465199	0.76991	-0.588238	1.0034	0.436382	0.0835929	-0.099217	0.517952	-0.170114	0	0	-0.194188	-0.220958	-0.166198	0.791085	-0.178233	0	0	-0.234648	0.205344	-0.0342326	-0.300395	-0.316267	0.257812	0.535802	1.04167	0	0	0.234494	-0.612289	0.750098	0.918658	1.34773	0	0
1.19	-0.842226	1.45676	-0.475088	0.769784	-0.601542	1.00429	0.433552	0.0884022	-0.10192	0.542409	-0.152218	0	0	-0.184308	-0.221346	-0.147129	0.824833	-0.201599	0	0	-0.2323	0.20923	-0.0396484	-0.300042	-0.314581	0.258836	0.533395	1.04115	0	0	0.207392	-0.606611	0.73328	0.917404	1.3473	0	0
1.2	-0.824946	1.45488	-0.489775	0.769614	-0.614723	1.00516	0.426488	0.0925443	-0.112646	0.558484	-0.13347	0	0	-0.172157	-0.222301	-0.127021	0.862141	-0.228131	0	0	-0.231164	0.213217	-0.045192	-0.300957	-0.31297	0.257659	0.533839	1.03959	0	0	0.181641	-0.600865	0.718139	0.916219	1.34717	0	0
1.21	-0.811692	1.45271	-0.50055	0.769385	-0.627651	1.00592	0.417496	0.096799	-0.125952	0.568798	-0.117275	0	0	-0.156826	-0.223649	-0.107111	0.903142	-0.254843	0	0	-0.230369	0.21752	-0.0494281	-0.303059	-0.311726	0.255364	0.536514	1.03789	0	0	0.157932	-0.5943	0.705184	0.914365	1.3459	0	0
